<svg width="17" height="15" viewBox="0 0 17 15" fill="none" xmlns="http://www.w3.org/2000/svg">
<g clip-path="url(#clip0_1_308)">
<g clip-path="url(#clip1_1_308)">
<g clip-path="url(#clip2_1_308)">
<path d="M2.7168 7.63769C2.99609 7.45996 3.37695 7.56152 3.5293 7.86621C3.68164 8.14551 3.60547 8.52637 3.32617 8.67871L1.9043 9.49121C1.72656 9.61816 1.47266 9.61816 1.29492 9.5166C1.0918 9.38965 0.990234 9.18652 0.990234 8.9834C0.990234 8.75488 1.11719 8.55176 1.29492 8.45019L2.7168 7.63769ZM3.32617 1.74707C3.50391 1.84863 3.63086 2.05176 3.63086 2.28027C3.63086 2.4834 3.50391 2.68652 3.32617 2.81348C3.12305 2.91504 2.89453 2.91504 2.7168 2.78809L1.29492 1.97559C1.11719 1.87402 0.990234 1.6709 0.990234 1.44238C0.990234 1.23926 1.0918 1.03613 1.29492 0.90918C1.47266 0.807618 1.72656 0.807618 1.9043 0.934571L3.32617 1.74707ZM2.84375 5.20019C2.84375 5.55566 2.56445 5.80957 2.23438 5.80957H0.609375C0.253906 5.80957 0 5.55566 0 5.20019C0 4.87012 0.253906 4.59082 0.609375 4.59082H2.23438C2.56445 4.59082 2.84375 4.87012 2.84375 5.20019ZM13.2285 2.86426C12.9492 2.86426 12.6953 2.68652 12.6191 2.43262C12.5684 2.15332 12.6699 1.87402 12.9238 1.74707L14.3203 0.934571C14.5996 0.756836 14.9805 0.858399 15.1328 1.16309C15.3105 1.44238 15.209 1.79785 14.9297 1.97559L13.5332 2.78809C13.4316 2.83887 13.3301 2.86426 13.2285 2.86426ZM15.6406 4.59082C15.9707 4.59082 16.25 4.87012 16.25 5.20019C16.25 5.55566 15.9707 5.80957 15.6406 5.80957H14.0156C13.6602 5.80957 13.4062 5.55566 13.4062 5.20019C13.4062 4.87012 13.6602 4.59082 14.0156 4.59082H15.6406ZM14.9297 8.45019C15.209 8.60254 15.3105 8.9834 15.1328 9.26269C14.9805 9.56738 14.5996 9.66894 14.3203 9.49121L12.8984 8.67871C12.7207 8.57715 12.5938 8.37402 12.5938 8.14551C12.5938 7.94238 12.7207 7.73926 12.8984 7.6123C13.1016 7.51074 13.3301 7.51074 13.5078 7.63769L14.9297 8.45019ZM8.125 0.350586C10.5879 0.350586 12.5938 2.33105 12.5938 4.79394C12.5938 5.93652 12.1621 6.95215 11.4766 7.71387C11.0449 8.19629 10.4102 9.21191 10.1562 10.0498C10.1562 10.0498 10.1562 10.0498 10.1562 10.0752H6.06836C6.06836 10.0498 6.06836 10.0498 6.06836 10.0498C5.81445 9.21191 5.17969 8.19629 4.74805 7.71387C4.0625 6.92676 3.65625 5.91113 3.65625 4.79394C3.65625 2.43262 5.53516 0.350586 8.125 0.350586ZM10.5625 6.95215C11.0703 6.34277 11.375 5.58105 11.375 4.79394C11.375 3.0166 9.90234 1.54394 8.09961 1.54394C6.09375 1.56934 4.875 3.21973 4.875 4.79394C4.875 5.58105 5.1543 6.34277 5.66211 6.95215C6.06836 7.38379 6.55078 8.12012 6.90625 8.85644H9.31836C9.67383 8.12012 10.1562 7.38379 10.5625 6.95215ZM6.09375 11.8779V10.9131H10.1562V11.8779C10.1562 12.0049 10.0801 12.208 10.0039 12.3349L9.57227 12.9697C9.44531 13.1728 9.14062 13.3506 8.88672 13.3506H7.33789C7.08398 13.3506 6.7793 13.1728 6.65234 12.9697L6.2207 12.3349C6.11914 12.1826 6.09375 12.0302 6.09375 11.8779ZM7.71875 2.35644C7.92188 2.35644 8.125 2.55957 8.125 2.78809C8.125 2.99121 7.92188 3.16894 7.71875 3.16894C7.0332 3.16894 6.5 3.72754 6.5 4.38769C6.5 4.61621 6.29688 4.81934 6.09375 4.81934C5.86523 4.81934 5.6875 4.61621 5.6875 4.38769C5.6875 3.27051 6.57617 2.35644 7.71875 2.35644Z" fill="#1FC6AF"/>
</g>
</g>
</g>
<defs>
<clipPath id="clip0_1_308">
<rect width="17" height="14" fill="white" transform="translate(0 0.199219)"/>
</clipPath>
<clipPath id="clip1_1_308">
<rect width="17" height="14" fill="white" transform="translate(0 0.199219)"/>
</clipPath>
<clipPath id="clip2_1_308">
<rect width="17" height="14" fill="white" transform="translate(0 0.199219)"/>
</clipPath>
</defs>
</svg>
