<svg width="10" height="15" viewBox="0 0 10 15" fill="none" xmlns="http://www.w3.org/2000/svg">
<g clip-path="url(#clip0_1_291)">
<g clip-path="url(#clip1_1_291)">
<g clip-path="url(#clip2_1_291)">
<path d="M8.73438 6.11914C9.06445 6.11914 9.34375 6.39844 9.34375 6.72851V7.74414C9.34375 10.0039 7.64258 11.8828 5.48438 12.1875V13.0254H6.70312C7.0332 13.0254 7.3125 13.3047 7.3125 13.6348C7.3125 13.9902 7.0332 14.2441 6.67773 14.2441H3.02148C2.69141 14.2441 2.4375 13.9394 2.4375 13.6348C2.4375 13.3047 2.69141 13.0254 3.02148 13.0254H4.26562V12.1367C2.03125 11.832 0.40625 9.80078 0.40625 7.54101V6.72851C0.40625 6.39844 0.660156 6.11914 1.01562 6.11914C1.3457 6.11914 1.625 6.39844 1.625 6.72851V7.61719C1.625 9.31836 2.84375 10.8164 4.54492 10.9941C6.47461 11.1719 8.125 9.64844 8.125 7.74414V6.72851C8.125 6.39844 8.37891 6.11914 8.73438 6.11914ZM4.875 10.1816C3.5293 10.1816 2.4375 9.08984 2.4375 7.74414V3.68164C2.4375 2.33594 3.5293 1.24414 4.875 1.24414C6.2207 1.24414 7.3125 2.36133 7.3125 3.68164V7.74414C7.3125 9.08984 6.2207 10.1816 4.875 10.1816ZM3.65625 3.68164V7.74414C3.65625 8.42969 4.18945 8.96289 4.875 8.96289C5.53516 8.96289 6.09375 8.42969 6.09375 7.74414V3.68164C6.09375 3.02148 5.53516 2.46289 4.875 2.46289C4.18945 2.46289 3.65625 3.02148 3.65625 3.68164Z" fill="#1FC6AF"/>
</g>
</g>
</g>
<defs>
<clipPath id="clip0_1_291">
<rect width="10" height="14" fill="white" transform="translate(0 0.749023)"/>
</clipPath>
<clipPath id="clip1_1_291">
<rect width="10" height="14" fill="white" transform="translate(0 0.749023)"/>
</clipPath>
<clipPath id="clip2_1_291">
<rect width="10" height="14" fill="white" transform="translate(0 0.749023)"/>
</clipPath>
</defs>
</svg>
