<svg width="12" height="15" viewBox="0 0 12 15" fill="none" xmlns="http://www.w3.org/2000/svg">
<g clip-path="url(#clip0_1_325)">
<g clip-path="url(#clip1_1_325)">
<g clip-path="url(#clip2_1_325)">
<path d="M11.375 9.58496C11.375 10.1182 11.0195 10.5751 10.5625 10.7529V12.4287H10.7656C11.0957 12.4287 11.375 12.708 11.375 13.038C11.375 13.3935 11.0957 13.6474 10.7656 13.6474H2.03125C0.888672 13.6474 0 12.7587 0 11.6162V2.67871C0 1.56153 0.888672 0.647461 2.03125 0.647461H10.1562C10.8164 0.647461 11.375 1.20605 11.375 1.86621V9.58496ZM9.34375 12.4287V10.8037H2.03125C1.57422 10.8037 1.21875 11.1845 1.21875 11.6162C1.21875 12.0732 1.57422 12.4287 2.03125 12.4287H9.34375ZM10.1562 9.58496V1.86621H2.03125C1.57422 1.86621 1.21875 2.24707 1.21875 2.67871V9.7627C1.44727 9.66113 1.72656 9.58496 2.03125 9.58496H10.1562ZM3.85938 4.70996C3.50391 4.70996 3.25 4.45606 3.25 4.10059C3.25 3.77051 3.50391 3.49121 3.85938 3.49121H8.32812C8.6582 3.49121 8.9375 3.77051 8.9375 4.10059C8.9375 4.45606 8.6582 4.70996 8.32812 4.70996H3.85938ZM3.85938 6.74121C3.50391 6.74121 3.25 6.48731 3.25 6.13184C3.25 5.80176 3.50391 5.52246 3.85938 5.52246H8.32812C8.6582 5.52246 8.9375 5.80176 8.9375 6.13184C8.9375 6.48731 8.6582 6.74121 8.32812 6.74121H3.85938Z" fill="#1FC6AF"/>
</g>
</g>
</g>
<defs>
<clipPath id="clip0_1_325">
<rect width="12" height="14" fill="white" transform="translate(0 0.389648)"/>
</clipPath>
<clipPath id="clip1_1_325">
<rect width="12" height="14" fill="white" transform="translate(0 0.389648)"/>
</clipPath>
<clipPath id="clip2_1_325">
<rect width="12" height="14" fill="white" transform="translate(0 0.389648)"/>
</clipPath>
</defs>
</svg>
