<svg width="13" height="11" viewBox="0 0 13 11" fill="none" xmlns="http://www.w3.org/2000/svg">
<g clip-path="url(#clip0_1_262)">
<g clip-path="url(#clip1_1_262)">
<g clip-path="url(#clip2_1_262)">
<path d="M0 2.4082C0 1.51953 0.710938 0.783203 1.625 0.783203H11.375C12.2637 0.783203 13 1.51953 13 2.4082V8.9082C13 9.82226 12.2637 10.5332 11.375 10.5332H1.625C0.710938 10.5332 0 9.82226 0 8.9082V2.4082ZM1.21875 2.4082V2.99219L5.58594 6.57226C6.11914 7.0039 6.85547 7.0039 7.38867 6.57226L11.7812 2.99219V2.4082C11.7812 2.20508 11.5781 2.00195 11.375 2.00195H1.625C1.39648 2.00195 1.21875 2.20508 1.21875 2.4082ZM1.21875 4.5664V8.9082C1.21875 9.13672 1.39648 9.31445 1.625 9.31445H11.375C11.5781 9.31445 11.7812 9.13672 11.7812 8.9082V4.5664L8.17578 7.51172C7.18555 8.32422 5.78906 8.32422 4.79883 7.51172L1.21875 4.5664Z" fill="#1FC6AF"/>
</g>
</g>
</g>
<defs>
<clipPath id="clip0_1_262">
<rect width="13" height="10" fill="white" transform="translate(0 0.729492)"/>
</clipPath>
<clipPath id="clip1_1_262">
<rect width="13" height="10" fill="white" transform="translate(0 0.729492)"/>
</clipPath>
<clipPath id="clip2_1_262">
<rect width="13" height="10" fill="white" transform="translate(0 0.729492)"/>
</clipPath>
</defs>
</svg>
