<svg width="67" height="33" viewBox="0 0 67 33" fill="none" xmlns="http://www.w3.org/2000/svg">
<g clip-path="url(#clip0_1_53)">
<mask id="mask0_1_53" style="mask-type:luminance" maskUnits="userSpaceOnUse" x="0" y="5" width="66" height="19">
<path d="M65.7838 5.19507H0.98407V23.1951H65.7838V5.19507Z" fill="white"/>
</mask>
<g mask="url(#mask0_1_53)">
<path d="M17.8459 5.19507H20.796V23.195H17.8459V5.19507ZM31.1214 17.453C31.1214 20.2077 28.7487 20.4273 28.0429 20.4273C26.2795 20.4273 25.9587 18.816 25.9587 17.844V10.9551H23.0086V17.8296C23.0086 19.536 23.5573 20.9443 24.519 21.8832C25.3687 22.7133 26.6416 23.1669 28.0208 23.1669C28.9988 23.1669 30.3838 22.8696 31.1214 22.2122V23.195H34.0715V10.9551H31.1214V17.453ZM39.9717 6.63507H37.0215V10.9551H34.809V13.8351H37.0215V23.195H39.9717V13.8351H42.1842V10.9551H39.9717V6.63507ZM51.4748 19.5353C50.8324 20.099 49.9843 20.4115 49.0535 20.4115C47.0017 20.4115 45.495 18.9405 45.495 16.9209C45.495 14.9013 46.9538 13.4923 49.0535 13.4923C49.9681 13.4923 50.8324 13.7897 51.4911 14.3535L51.9387 14.7293L53.9278 12.7882L53.43 12.3497C52.2596 11.3179 50.7056 10.7391 49.0528 10.7391C45.3652 10.7391 42.6872 13.3368 42.6872 16.9058C42.6872 20.4597 45.4293 23.1504 49.0528 23.1504C50.7366 23.1504 52.3068 22.5715 53.4625 21.5232L53.9433 21.0847L51.9232 19.145L51.4748 19.5353ZM64.4575 12.0221C63.6079 11.1927 62.6122 10.7391 61.233 10.7391C60.2551 10.7391 59.1473 11.0364 58.4098 11.6931V5.19507H55.4597V23.195H58.4098V16.4522C58.4098 13.6975 60.4144 13.4787 61.1202 13.4787C62.8836 13.4787 62.8349 15.0907 62.8349 16.0613V23.195H65.785V16.0764C65.785 14.37 65.42 12.9617 64.4575 12.0221Z" fill="white"/>
<path d="M48.9554 14.8704C49.5211 14.8704 50.0636 15.0898 50.4636 15.4803C50.8636 15.8708 51.0883 16.4004 51.0883 16.9527C51.0883 17.5049 50.8636 18.0345 50.4636 18.425C50.0636 18.8155 49.5211 19.0349 48.9554 19.0349C48.3897 19.0349 47.8472 18.8155 47.4472 18.425C47.0472 18.0345 46.8225 17.5049 46.8225 16.9527C46.8225 16.4004 47.0472 15.8708 47.4472 15.4803C47.8472 15.0898 48.3897 14.8704 48.9554 14.8704Z" fill="white"/>
<path d="M13.7145 18.674C12.5927 19.8008 11.069 20.4114 9.46561 20.4114C6.1792 20.4114 3.78962 17.8914 3.78962 14.4326C3.78962 10.9579 6.1792 8.43786 9.46561 8.43786C11.0535 8.43786 12.5603 9.0477 13.699 10.1594L14.1474 10.5979L16.1196 8.67258L15.6866 8.2341C14.0515 6.59034 11.839 5.69897 9.46561 5.69897C4.62376 5.69897 0.98407 9.45522 0.98407 14.4477C0.98407 19.425 4.63998 23.1661 9.46561 23.1661C11.8552 23.1661 14.0678 22.2589 15.7029 20.6152L16.1358 20.1767L14.1799 18.2204L13.7145 18.674Z" fill="white"/>
</g>
</g>
<defs>
<clipPath id="clip0_1_53">
<rect width="66" height="19" fill="white" transform="translate(0.299988 4.80005)"/>
</clipPath>
</defs>
</svg>
