<svg width="84" height="15" viewBox="0 0 84 15" fill="none" xmlns="http://www.w3.org/2000/svg">
<g clip-path="url(#clip0_1_64)">
<path d="M8.51682 1.08508L10.2007 6.26744H15.6497L11.2413 9.47031L12.9252 14.6527L8.51682 11.4498L4.10847 14.6527L5.79231 9.47031L1.38396 6.26744H6.83298L8.51682 1.08508Z" fill="white"/>
</g>
<g clip-path="url(#clip1_1_64)">
<path d="M25.5168 1.08508L27.2007 6.26744H32.6497L28.2413 9.47031L29.9252 14.6527L25.5168 11.4498L21.1085 14.6527L22.7923 9.47031L18.384 6.26744H23.833L25.5168 1.08508Z" fill="white"/>
</g>
<g clip-path="url(#clip2_1_64)">
<path d="M42.5168 1.08508L44.2007 6.26744H49.6497L45.2413 9.47031L46.9252 14.6527L42.5168 11.4498L38.1085 14.6527L39.7923 9.47031L35.384 6.26744H40.833L42.5168 1.08508Z" fill="white"/>
</g>
<g clip-path="url(#clip3_1_64)">
<path d="M59.5168 1.08508L61.2007 6.26744H66.6497L62.2413 9.47031L63.9252 14.6527L59.5168 11.4498L55.1085 14.6527L56.7923 9.47031L52.384 6.26744H57.833L59.5168 1.08508Z" fill="white"/>
</g>
<g clip-path="url(#clip4_1_64)">
<path d="M76.5168 1.08508L78.2007 6.26744H83.6497L79.2413 9.47031L80.9252 14.6527L76.5168 11.4498L72.1085 14.6527L73.7923 9.47031L69.384 6.26744H74.833L76.5168 1.08508Z" fill="white"/>
</g>
<defs>
<clipPath id="clip0_1_64">
<rect width="15" height="14" fill="white" transform="translate(0.699989 0.690063)"/>
</clipPath>
<clipPath id="clip1_1_64">
<rect width="15" height="14" fill="white" transform="translate(17.7 0.690063)"/>
</clipPath>
<clipPath id="clip2_1_64">
<rect width="15" height="14" fill="white" transform="translate(34.7 0.690063)"/>
</clipPath>
<clipPath id="clip3_1_64">
<rect width="15" height="14" fill="white" transform="translate(51.7 0.690063)"/>
</clipPath>
<clipPath id="clip4_1_64">
<rect width="15" height="14" fill="white" transform="translate(68.7 0.690063)"/>
</clipPath>
</defs>
</svg>
