<svg width="296" height="41" viewBox="0 0 296 41" fill="none" xmlns="http://www.w3.org/2000/svg">
<g clip-path="url(#clip0_1_666)">
<g clip-path="url(#clip1_1_666)">
<g clip-path="url(#clip2_1_666)">
<path d="M16.4453 26.33C16.4453 26.2519 16.3672 26.1738 16.25 26.1738C16.1328 26.1738 16.0547 26.2519 16.0547 26.33C16.0547 26.4082 16.1328 26.4863 16.25 26.4472C16.3672 26.4472 16.4453 26.4082 16.4453 26.33ZM15.2344 26.1347C15.2734 26.0566 15.3906 26.0175 15.5078 26.0566C15.625 26.0957 15.6641 26.1738 15.6641 26.2519C15.625 26.33 15.5078 26.3691 15.4297 26.33C15.3125 26.33 15.2344 26.2129 15.2344 26.1347ZM16.9922 26.0957C17.0703 26.0566 17.1875 26.1347 17.1875 26.2129C17.2266 26.291 17.1484 26.33 17.0312 26.3691C16.9141 26.4082 16.7969 26.3691 16.7969 26.291C16.7969 26.1738 16.875 26.0957 16.9922 26.0957ZM19.5312 11.0957C24.9609 11.0957 29.375 15.2363 29.375 20.6269C29.375 24.9629 26.7188 28.6738 22.8125 29.9629C22.3047 30.08 22.1094 29.7675 22.1094 29.4941C22.1094 29.1816 22.1484 27.541 22.1484 26.2519C22.1484 25.3144 21.8359 24.7285 21.4844 24.416C23.6719 24.1816 25.9766 23.8691 25.9766 20.1191C25.9766 19.0254 25.5859 18.5176 24.9609 17.8145C25.0391 17.541 25.3906 16.5254 24.8438 15.1582C24.0234 14.8848 22.1484 16.2129 22.1484 16.2129C21.3672 15.9785 20.5469 15.9004 19.6875 15.9004C18.8672 15.9004 18.0469 15.9785 17.2656 16.2129C17.2656 16.2129 15.3516 14.9238 14.5703 15.1582C14.0234 16.5254 14.3359 17.541 14.4531 17.8145C13.8281 18.5176 13.5156 19.0254 13.5156 20.1191C13.5156 23.8691 15.7422 24.1816 17.9297 24.416C17.6172 24.6894 17.3828 25.1191 17.3047 25.7441C16.7188 26.0175 15.3125 26.4472 14.4531 24.9238C13.9063 23.9863 12.9297 23.9082 12.9297 23.9082C11.9922 23.9082 12.8906 24.5332 12.8906 24.5332C13.5156 24.8066 13.9453 25.9394 13.9453 25.9394C14.5312 27.6972 17.2656 27.1113 17.2656 27.1113C17.2656 27.9316 17.2656 29.2597 17.2656 29.5332C17.2656 29.7675 17.1094 30.08 16.6016 30.0019C12.6953 28.6738 10 24.9629 10 20.6269C10 15.2363 14.1406 11.0957 19.5312 11.0957ZM13.7891 24.5722C13.8281 24.5332 13.9062 24.5722 13.9844 24.6113C14.0625 24.6894 14.0625 24.8066 14.0234 24.8457C13.9453 24.8847 13.8672 24.8457 13.7891 24.8066C13.75 24.7285 13.7109 24.6113 13.7891 24.5722ZM13.3594 24.2597C13.3984 24.2207 13.4375 24.2207 13.5156 24.2597C13.5938 24.2988 13.6328 24.3379 13.6328 24.3769C13.5938 24.455 13.5156 24.455 13.4375 24.416C13.3594 24.3769 13.3203 24.3379 13.3594 24.2597ZM14.6094 25.666C14.6875 25.5879 14.8047 25.6269 14.8828 25.705C14.9609 25.7832 14.9609 25.9004 14.9219 25.9394C14.8828 26.0175 14.7656 25.9785 14.6875 25.9004C14.5703 25.8222 14.5703 25.705 14.6094 25.666ZM14.1797 25.08C14.2578 25.041 14.3359 25.08 14.4141 25.1582C14.4531 25.2363 14.4531 25.3535 14.4141 25.3925C14.3359 25.4316 14.2578 25.3925 14.1797 25.3144C14.1016 25.2363 14.1016 25.1191 14.1797 25.08Z" fill="white"/>
</g>
</g>
</g>
<g clip-path="url(#clip3_1_666)">
<g clip-path="url(#clip4_1_666)">
<g clip-path="url(#clip5_1_666)">
<path d="M92.0556 11.0713C92.7934 11.0713 93.4444 11.7223 93.4444 12.5036V29.1269C93.4444 29.9081 92.7934 30.5158 92.0556 30.5158H75.3455C74.6076 30.5158 74 29.9081 74 29.1269V12.5036C74 11.7223 74.6076 11.0713 75.3455 11.0713H92.0556ZM79.8594 27.738V18.4932H76.9948V27.738H79.8594ZM78.4271 17.1911C79.3385 17.1911 80.0764 16.4532 80.0764 15.5418C80.0764 14.6303 79.3385 13.8491 78.4271 13.8491C77.4722 13.8491 76.7344 14.6303 76.7344 15.5418C76.7344 16.4532 77.4722 17.1911 78.4271 17.1911ZM90.6667 27.738V22.6599C90.6667 20.1859 90.1024 18.2328 87.1944 18.2328C85.8056 18.2328 84.8507 19.014 84.4601 19.7518H84.4167V18.4932H81.6823V27.738H84.5469V23.1807C84.5469 21.9654 84.7639 20.7935 86.283 20.7935C87.7587 20.7935 87.7587 22.1824 87.7587 23.2241V27.738H90.6667Z" fill="white"/>
</g>
</g>
</g>
<g clip-path="url(#clip6_1_666)">
<g clip-path="url(#clip7_1_666)">
<path d="M152.942 12.2354H155.821L149.488 19.5133L156.972 29.3406H151.133L146.528 23.3784L141.306 29.3406H138.386L145.171 21.6103L138.016 12.2354H144.02L148.132 17.7041L152.942 12.2354ZM151.914 27.6136H153.518L143.156 13.8801H141.429L151.914 27.6136Z" fill="white"/>
</g>
</g>
<g clip-path="url(#clip8_1_666)">
<g clip-path="url(#clip9_1_666)">
<g clip-path="url(#clip10_1_666)">
<path d="M221.688 20.7832C221.688 25.6269 218.133 29.6504 213.484 30.3535V23.5957H215.75L216.18 20.7832H213.484V18.9863C213.484 18.2051 213.875 17.4629 215.086 17.4629H216.297V15.0801C216.297 15.0801 215.203 14.8848 214.109 14.8848C211.922 14.8848 210.477 16.252 210.477 18.6738V20.7832H208.016V23.5957H210.477V30.3535C205.828 29.6504 202.312 25.6269 202.312 20.7832C202.312 15.4316 206.648 11.0957 212 11.0957C217.352 11.0957 221.688 15.4316 221.688 20.7832Z" fill="white"/>
</g>
</g>
</g>
<g clip-path="url(#clip11_1_666)">
<g clip-path="url(#clip12_1_666)">
<path d="M280.109 24.3628C279.224 25.1063 277.986 25.664 276.748 25.664C273.918 25.664 271.972 23.4333 271.972 20.459C271.972 17.4847 273.918 15.4399 276.748 15.4399C277.986 15.4399 279.224 15.8117 280.109 16.7411L280.639 17.2988L283.469 14.5104L282.762 13.9527C281.17 12.4656 279.047 11.5361 276.748 11.5361C271.795 11.5361 268.081 15.4399 268.081 20.6449C268.081 25.8499 271.795 29.7536 276.748 29.7536C279.047 29.7536 281.17 28.8242 282.762 27.3371L283.469 26.7793L280.639 23.8051L280.109 24.3628Z" fill="white"/>
<path d="M276.577 23.6156C278.14 23.6156 279.407 22.2839 279.407 20.6413C279.407 18.9986 278.14 17.667 276.577 17.667C275.014 17.667 273.747 18.9986 273.747 20.6413C273.747 22.2839 275.014 23.6156 276.577 23.6156Z" fill="white"/>
</g>
</g>
<defs>
<clipPath id="clip0_1_666">
<rect width="20" height="20" fill="white" transform="translate(10 10.6904)"/>
</clipPath>
<clipPath id="clip1_1_666">
<rect width="20" height="20" fill="white" transform="translate(10 10.6904)"/>
</clipPath>
<clipPath id="clip2_1_666">
<rect width="20" height="20" fill="white" transform="translate(10 10.6904)"/>
</clipPath>
<clipPath id="clip3_1_666">
<rect width="20" height="20" fill="white" transform="translate(74 10.6904)"/>
</clipPath>
<clipPath id="clip4_1_666">
<rect width="20" height="20" fill="white" transform="translate(74 10.6904)"/>
</clipPath>
<clipPath id="clip5_1_666">
<rect width="20" height="20" fill="white" transform="translate(74 10.6904)"/>
</clipPath>
<clipPath id="clip6_1_666">
<rect width="20" height="20" fill="white" transform="translate(138 10.6904)"/>
</clipPath>
<clipPath id="clip7_1_666">
<rect width="20" height="20" fill="white" transform="translate(138 10.6904)"/>
</clipPath>
<clipPath id="clip8_1_666">
<rect width="20" height="20" fill="white" transform="translate(202 10.6904)"/>
</clipPath>
<clipPath id="clip9_1_666">
<rect width="20" height="20" fill="white" transform="translate(202 10.6904)"/>
</clipPath>
<clipPath id="clip10_1_666">
<rect width="20" height="20" fill="white" transform="translate(202 10.6904)"/>
</clipPath>
<clipPath id="clip11_1_666">
<rect width="17" height="20" fill="white" transform="translate(267.5 10.6904)"/>
</clipPath>
<clipPath id="clip12_1_666">
<rect width="17" height="20" fill="white" transform="translate(267.5 10.6904)"/>
</clipPath>
</defs>
</svg>
