<svg width="130" height="29" viewBox="0 0 130 29" fill="none" xmlns="http://www.w3.org/2000/svg">
<g clip-path="url(#clip0_1_648)">
<g clip-path="url(#clip1_1_648)">
<g clip-path="url(#clip2_1_648)">
<mask id="mask0_1_648" style="mask-type:luminance" maskUnits="userSpaceOnUse" x="0" y="7" width="130" height="16">
<path d="M130 7.89062H0V22.2416H130V7.89062Z" fill="white"/>
</mask>
<g mask="url(#mask0_1_648)">
<path d="M7.6502 21.8612C11.0838 21.8612 13.192 20.4242 13.192 18.0889C13.192 15.9932 11.4251 14.7557 8.7144 14.616V14.4962C11.0637 14.3565 12.5897 13.2986 12.5897 11.4623C12.5897 9.28675 10.4614 7.88965 7.1684 7.88965H0V21.8606L7.6502 21.8612ZM3.0721 9.54619H6.5659C8.3329 9.54619 9.4573 10.4044 9.4573 11.7817C9.4573 13.159 8.3329 14.017 6.5659 14.017H3.0721V9.54619ZM3.0721 15.534H7.108C8.875 15.534 9.9994 16.4521 9.9994 17.8692C9.9994 19.2663 8.875 20.1446 7.108 20.1446H3.0721V15.534Z" fill="white"/>
<path d="M20.099 21.861V16.6517H23.1108C24.8176 16.6517 26.1026 17.3902 26.5043 19.1466L27.0865 21.861H30.6206L29.9579 18.9869C29.3957 16.7315 28.0102 15.4142 25.1789 15.4142H24.9381V15.3144H25.5605C28.1909 15.3144 29.8976 13.9372 29.8976 11.8814C29.8976 9.44645 27.5282 7.88965 23.8135 7.88965H16.9866V21.8606L20.099 21.861ZM20.099 9.72605H23.5527C25.5204 9.72605 26.7854 10.7639 26.7854 12.3606C26.7854 13.9573 25.5404 14.9752 23.6329 14.9752H20.099V9.72605Z" fill="white"/>
<path d="M50.447 21.8616L44.0016 7.89062H39.8652L33.44 21.8616H36.6326L38.3793 17.9496H45.4673L47.2143 21.8616H50.447ZM41.9134 10.0456L44.624 16.0733H39.2226L41.9134 10.0456Z" fill="white"/>
<path d="M56.561 21.862V7.89062H53.5089V21.862H56.561Z" fill="white"/>
<path d="M72.51 18.5686L64.2977 7.89062H61.0046V21.8616H64.0968L63.9362 11.1236L72.1487 21.8616H75.4416V7.89062H72.3494L72.51 18.5686Z" fill="white"/>
<path d="M93.5278 7.89062H90.3954V13.7786H82.9862V7.89062H79.8738V21.862H82.9862V15.8144H90.3954V21.862H93.5278V7.89062Z" fill="white"/>
<path d="M105.17 22.2412C109.828 22.2412 112.579 19.6267 112.579 15.1757V7.89062H109.547V15.1358C109.547 18.2096 107.961 19.9859 105.21 19.9859C102.419 19.9859 100.813 18.1896 100.813 15.0758V7.89062H97.7607V15.2356C97.7607 19.6465 100.492 22.2412 105.17 22.2412Z" fill="white"/>
<path d="M124.46 21.8612C127.894 21.8612 130.002 20.4242 130.002 18.0889C130.002 15.9932 128.235 14.7557 125.524 14.616V14.4962C127.874 14.3565 129.4 13.2986 129.4 11.4623C129.4 9.28675 127.271 7.88965 123.978 7.88965H116.81V21.8606L124.46 21.8612ZM119.882 9.54619H123.376C125.143 9.54619 126.267 10.4044 126.267 11.7817C126.267 13.159 125.143 14.017 123.376 14.017H119.882V9.54619ZM119.882 15.534H123.918C125.685 15.534 126.809 16.4521 126.809 17.8692C126.809 19.2663 125.685 20.1446 123.918 20.1446H119.882V15.534Z" fill="white"/>
</g>
</g>
</g>
</g>
<defs>
<clipPath id="clip0_1_648">
<rect width="130" height="15" fill="white" transform="translate(0 7.89062)"/>
</clipPath>
<clipPath id="clip1_1_648">
<rect width="130" height="15" fill="white" transform="translate(0 7.89062)"/>
</clipPath>
<clipPath id="clip2_1_648">
<rect width="130" height="15" fill="white" transform="translate(0 7.89062)"/>
</clipPath>
</defs>
</svg>
