<svg width="19" height="20" viewBox="0 0 19 20" fill="none" xmlns="http://www.w3.org/2000/svg">
<g clip-path="url(#clip0_1_278)">
<g clip-path="url(#clip1_1_278)">
<g clip-path="url(#clip2_1_278)">
<path d="M16.64 1.36816C17.3041 1.36816 17.89 1.9541 17.89 2.65722V17.6181C17.89 18.3213 17.3041 18.8681 16.64 18.8681H1.60095C0.93689 18.8681 0.390015 18.3213 0.390015 17.6181V2.65722C0.390015 1.9541 0.93689 1.36816 1.60095 1.36816H16.64ZM5.66345 16.3681V8.04785H3.08532V16.3681H5.66345ZM4.37439 6.87597C5.1947 6.87597 5.85876 6.21191 5.85876 5.3916C5.85876 4.57129 5.1947 3.86816 4.37439 3.86816C3.51501 3.86816 2.85095 4.57129 2.85095 5.3916C2.85095 6.21191 3.51501 6.87597 4.37439 6.87597ZM15.39 16.3681V11.7978C15.39 9.57129 14.8822 7.81347 12.265 7.81347C11.015 7.81347 10.1556 8.5166 9.80407 9.18066H9.76501V8.04785H7.30407V16.3681H9.88221V12.2666C9.88221 11.1728 10.0775 10.1182 11.4447 10.1182C12.7728 10.1182 12.7728 11.3681 12.7728 12.3056V16.3681H15.39Z" fill="#0F1216"/>
</g>
</g>
</g>
<defs>
<clipPath id="clip0_1_278">
<rect width="18" height="19" fill="white" transform="translate(0.390015 0.419922)"/>
</clipPath>
<clipPath id="clip1_1_278">
<rect width="18" height="19" fill="white" transform="translate(0.390015 0.419922)"/>
</clipPath>
<clipPath id="clip2_1_278">
<rect width="18" height="19" fill="white" transform="translate(0.390015 0.419922)"/>
</clipPath>
</defs>
</svg>
