<svg width="16" height="19" viewBox="0 0 16 19" fill="none" xmlns="http://www.w3.org/2000/svg">
<g clip-path="url(#clip0_1_567)">
<path d="M11.9066 13.6667C11.0664 14.3731 9.8902 14.9029 8.71392 14.9029C6.02528 14.9029 4.17692 12.7837 4.17692 9.95815C4.17692 7.13255 6.02528 5.19001 8.71392 5.19001C9.8902 5.19001 11.0664 5.54323 11.9066 6.42619L12.4107 6.95602L15.0993 4.30704L14.4272 3.77721C12.9148 2.36442 10.8984 1.48145 8.71392 1.48145C4.00887 1.48145 0.480042 5.19001 0.480042 10.1348C0.480042 15.0795 4.00887 18.7881 8.71392 18.7881C10.8984 18.7881 12.9148 17.9051 14.4272 16.4923L15.0993 15.9625L12.4107 13.1369L11.9066 13.6667Z" fill="white"/>
<path d="M8.54849 12.9568C10.0334 12.9568 11.2371 11.6918 11.2371 10.1313C11.2371 8.57072 10.0334 7.30566 8.54849 7.30566C7.06361 7.30566 5.85992 8.57072 5.85992 10.1313C5.85992 11.6918 7.06361 12.9568 8.54849 12.9568Z" fill="white"/>
</g>
<defs>
<clipPath id="clip0_1_567">
<rect width="15" height="18" fill="white" transform="translate(0.480042 0.860352)"/>
</clipPath>
</defs>
</svg>
