<svg width="23" height="17" viewBox="0 0 23 17" fill="none" xmlns="http://www.w3.org/2000/svg">
<g clip-path="url(#clip0_1_282)">
<g clip-path="url(#clip1_1_282)">
<g clip-path="url(#clip2_1_282)">
<path d="M21.8353 3.61426C22.3041 5.25488 22.3041 8.77051 22.3041 8.77051C22.3041 8.77051 22.3041 12.247 21.8353 13.9267C21.6009 14.8642 20.8588 15.5674 19.9603 15.8017C18.2806 16.2314 11.64 16.2314 11.64 16.2314C11.64 16.2314 4.96032 16.2314 3.28063 15.8017C2.3822 15.5674 1.64001 14.8642 1.40563 13.9267C0.93689 12.247 0.93689 8.77051 0.93689 8.77051C0.93689 8.77051 0.93689 5.25488 1.40563 3.61426C1.64001 2.67676 2.3822 1.93457 3.28063 1.7002C4.96032 1.23145 11.64 1.23145 11.64 1.23145C11.64 1.23145 18.2806 1.23145 19.9603 1.7002C20.8588 1.93457 21.6009 2.67676 21.8353 3.61426ZM9.45251 11.9345L14.9994 8.77051L9.45251 5.60644V11.9345Z" fill="#0F1216"/>
</g>
</g>
</g>
<defs>
<clipPath id="clip0_1_282">
<rect width="22" height="16" fill="white" transform="translate(0.390015 0.919922)"/>
</clipPath>
<clipPath id="clip1_1_282">
<rect width="22" height="16" fill="white" transform="translate(0.390015 0.919922)"/>
</clipPath>
<clipPath id="clip2_1_282">
<rect width="22" height="16" fill="white" transform="translate(0.390015 0.919922)"/>
</clipPath>
</defs>
</svg>
