<svg width="130" height="16" viewBox="0 0 130 16" fill="none" xmlns="http://www.w3.org/2000/svg">
<g clip-path="url(#clip0_1_770)">
<g clip-path="url(#clip1_1_770)">
<g clip-path="url(#clip2_1_770)">
<mask id="mask0_1_770" style="mask-type:luminance" maskUnits="userSpaceOnUse" x="0" y="0" width="130" height="16">
<path d="M130 0.880005H0V15.231H130V0.880005Z" fill="white"/>
</mask>
<g mask="url(#mask0_1_770)">
<path d="M7.6502 14.851C11.0838 14.851 13.192 13.414 13.192 11.0787C13.192 8.98301 11.4251 7.74551 8.7144 7.60581V7.48607C11.0637 7.34636 12.5897 6.28847 12.5897 4.45217C12.5897 2.27657 10.4614 0.879471 7.1684 0.879471H0V14.8505L7.6502 14.851ZM3.0721 2.53601H6.5659C8.3329 2.53601 9.4573 3.39426 9.4573 4.77151C9.4573 6.14881 8.3329 7.00681 6.5659 7.00681H3.0721V2.53601ZM3.0721 8.52381H7.108C8.875 8.52381 9.9994 9.44193 9.9994 10.859C9.9994 12.2561 8.875 13.1344 7.108 13.1344H3.0721V8.52381Z" fill="white"/>
<path d="M20.099 14.851V9.64171H23.1108C24.8176 9.64171 26.1026 10.3802 26.5043 12.1366L27.0865 14.851H30.6206L29.9579 11.9769C29.3957 9.72151 28.0102 8.40421 25.1789 8.40421H24.9381V8.30441H25.5605C28.1909 8.30441 29.8976 6.92721 29.8976 4.87141C29.8976 2.43641 27.5282 0.879608 23.8135 0.879608H16.9866V14.8506L20.099 14.851ZM20.099 2.71601H23.5527C25.5204 2.71601 26.7854 3.75391 26.7854 5.35061C26.7854 6.94731 25.5404 7.96521 23.6329 7.96521H20.099V2.71601Z" fill="white"/>
<path d="M50.447 14.851L44.0016 0.880005H39.8652L33.44 14.851H36.6326L38.3793 10.939H45.4673L47.2143 14.851H50.447ZM41.9134 3.035L44.624 9.06271H39.2226L41.9134 3.035Z" fill="white"/>
<path d="M56.561 14.8514V0.880005H53.5089V14.8514H56.561Z" fill="white"/>
<path d="M72.51 11.558L64.2977 0.880005H61.0046V14.851H64.0968L63.9362 4.113L72.1487 14.851H75.4416V0.880005H72.3494L72.51 11.558Z" fill="white"/>
<path d="M93.5278 0.880005H90.3954V6.76797H82.9862V0.880005H79.8738V14.8514H82.9862V8.8038H90.3954V14.8514H93.5278V0.880005Z" fill="white"/>
<path d="M105.17 15.231C109.828 15.231 112.579 12.6165 112.579 8.16552V0.880417H109.547V8.12562C109.547 11.1994 107.961 12.9757 105.21 12.9757C102.419 12.9757 100.813 11.1794 100.813 8.06562V0.880417H97.7607V8.22542C97.7607 12.6363 100.492 15.231 105.17 15.231Z" fill="white"/>
<path d="M124.46 14.851C127.894 14.851 130.002 13.414 130.002 11.0787C130.002 8.98301 128.235 7.74551 125.524 7.60581V7.48607C127.874 7.34636 129.4 6.28847 129.4 4.45217C129.4 2.27657 127.271 0.879471 123.978 0.879471H116.81V14.8505L124.46 14.851ZM119.882 2.53601H123.376C125.143 2.53601 126.267 3.39426 126.267 4.77151C126.267 6.14881 125.143 7.00681 123.376 7.00681H119.882V2.53601ZM119.882 8.52381H123.918C125.685 8.52381 126.809 9.44193 126.809 10.859C126.809 12.2561 125.685 13.1344 123.918 13.1344H119.882V8.52381Z" fill="white"/>
</g>
</g>
</g>
</g>
<defs>
<clipPath id="clip0_1_770">
<rect width="130" height="15" fill="white" transform="translate(0 0.880005)"/>
</clipPath>
<clipPath id="clip1_1_770">
<rect width="130" height="15" fill="white" transform="translate(0 0.880005)"/>
</clipPath>
<clipPath id="clip2_1_770">
<rect width="130" height="15" fill="white" transform="translate(0 0.880005)"/>
</clipPath>
</defs>
</svg>
