<svg width="16" height="19" viewBox="0 0 16 19" fill="none" xmlns="http://www.w3.org/2000/svg">
<g clip-path="url(#clip0_1_487)">
<path d="M11.5866 13.6364C10.7464 14.3428 9.57016 14.8726 8.39388 14.8726C5.70524 14.8726 3.85688 12.7534 3.85688 9.92787C3.85688 7.10227 5.70524 5.15973 8.39388 5.15973C9.57016 5.15973 10.7464 5.51295 11.5866 6.39591L12.0907 6.92574L14.7793 4.27676L14.1072 3.74693C12.5948 2.33414 10.5784 1.45117 8.39388 1.45117C3.68883 1.45117 0.160004 5.15973 0.160004 10.1045C0.160004 15.0492 3.68883 18.7578 8.39388 18.7578C10.5784 18.7578 12.5948 17.8748 14.1072 16.462L14.7793 15.9322L12.0907 13.1066L11.5866 13.6364Z" fill="white"/>
<path d="M8.22846 12.9265C9.71334 12.9265 10.9171 11.6615 10.9171 10.101C10.9171 8.54045 9.71334 7.27539 8.22846 7.27539C6.74358 7.27539 5.53989 8.54045 5.53989 10.101C5.53989 11.6615 6.74358 12.9265 8.22846 12.9265Z" fill="white"/>
</g>
<defs>
<clipPath id="clip0_1_487">
<rect width="15" height="18" fill="white" transform="translate(0.160004 0.830078)"/>
</clipPath>
</defs>
</svg>
