<svg width="16" height="19" viewBox="0 0 16 19" fill="none" xmlns="http://www.w3.org/2000/svg">
<g clip-path="url(#clip0_1_451)">
<path d="M12.2566 13.6862C11.4164 14.3926 10.2401 14.9224 9.06387 14.9224C6.37523 14.9224 4.52687 12.8032 4.52687 9.97768C4.52687 7.15208 6.37523 5.20954 9.06387 5.20954C10.2401 5.20954 11.4164 5.56276 12.2566 6.44572L12.7607 6.97555L15.4493 4.32657L14.7772 3.79674C13.2648 2.38395 11.2484 1.50098 9.06387 1.50098C4.35882 1.50098 0.829987 5.20954 0.829987 10.1543C0.829987 15.099 4.35882 18.8076 9.06387 18.8076C11.2484 18.8076 13.2648 17.9246 14.7772 16.5118L15.4493 15.982L12.7607 13.1564L12.2566 13.6862Z" fill="white"/>
<path d="M8.89844 12.9763C10.3833 12.9763 11.5871 11.7113 11.5871 10.1508C11.5871 8.59026 10.3833 7.3252 8.89844 7.3252C7.41356 7.3252 6.20987 8.59026 6.20987 10.1508C6.20987 11.7113 7.41356 12.9763 8.89844 12.9763Z" fill="white"/>
</g>
<defs>
<clipPath id="clip0_1_451">
<rect width="15" height="18" fill="white" transform="translate(0.829987 0.879883)"/>
</clipPath>
</defs>
</svg>
