<svg width="16" height="19" viewBox="0 0 16 19" fill="none" xmlns="http://www.w3.org/2000/svg">
<g clip-path="url(#clip0_1_518)">
<path d="M11.5866 13.0759C10.7464 13.7823 9.57016 14.3121 8.39388 14.3121C5.70524 14.3121 3.85688 12.1929 3.85688 9.36733C3.85688 6.54173 5.70524 4.59919 8.39388 4.59919C9.57016 4.59919 10.7464 4.95241 11.5866 5.83537L12.0907 6.3652L14.7793 3.71622L14.1072 3.18639C12.5948 1.7736 10.5784 0.890625 8.39388 0.890625C3.68883 0.890625 0.160004 4.59919 0.160004 9.54394C0.160004 14.4887 3.68883 18.1973 8.39388 18.1973C10.5784 18.1973 12.5948 17.3143 14.1072 15.9015L14.7793 15.3717L12.0907 12.5461L11.5866 13.0759Z" fill="white"/>
<path d="M8.22846 12.366C9.71334 12.366 10.9171 11.101 10.9171 9.54043C10.9171 7.9799 9.71334 6.71484 8.22846 6.71484C6.74358 6.71484 5.53989 7.9799 5.53989 9.54043C5.53989 11.101 6.74358 12.366 8.22846 12.366Z" fill="white"/>
</g>
<defs>
<clipPath id="clip0_1_518">
<rect width="15" height="18" fill="white" transform="translate(0.160004 0.269531)"/>
</clipPath>
</defs>
</svg>
