<svg width="17" height="17" viewBox="0 0 17 17" fill="none" xmlns="http://www.w3.org/2000/svg">
<g clip-path="url(#clip0_1_467)">
<path d="M15.7063 3.39629C15.1288 2.70974 14.0625 2.42969 12.026 2.42969H4.63378C2.55073 2.42969 1.46635 2.7278 0.890967 3.45875C0.329987 4.17142 0.329987 5.22148 0.329987 6.6748V9.44481C0.329987 12.2603 0.995587 13.6899 4.63378 13.6899H12.0261C13.7921 13.6899 14.7707 13.4427 15.4037 12.8369C16.053 12.2155 16.33 11.2011 16.33 9.44481V6.6748C16.33 5.14215 16.2866 4.08589 15.7063 3.39629ZM10.602 8.44223L7.24524 10.1966C7.17019 10.2358 7.08813 10.2553 7.00617 10.2553C6.91337 10.2553 6.82077 10.2303 6.73876 10.1807C6.58433 10.0871 6.49004 9.9197 6.49004 9.73916V6.24166C6.49004 6.06143 6.58408 5.8942 6.73819 5.80058C6.89236 5.70695 7.0841 5.70055 7.24405 5.78365L10.6009 7.52672C10.7716 7.61539 10.8789 7.7917 10.8791 7.98406C10.8794 8.17658 10.7726 8.35315 10.602 8.44223Z" fill="white" stroke="white" stroke-width="0.0516129"/>
</g>
<defs>
<clipPath id="clip0_1_467">
<rect width="16" height="16" fill="white" transform="translate(0.329987 0.0595703)"/>
</clipPath>
</defs>
</svg>
