<svg width="16" height="19" viewBox="0 0 16 19" fill="none" xmlns="http://www.w3.org/2000/svg">
<g clip-path="url(#clip0_1_550)">
<path d="M11.9066 13.4763C11.0664 14.1827 9.8902 14.7125 8.71392 14.7125C6.02528 14.7125 4.17692 12.5933 4.17692 9.76772C4.17692 6.94212 6.02528 4.99958 8.71392 4.99958C9.8902 4.99958 11.0664 5.3528 11.9066 6.23576L12.4107 6.76559L15.0993 4.11661L14.4272 3.58678C12.9148 2.17399 10.8984 1.29102 8.71392 1.29102C4.00887 1.29102 0.480042 4.99958 0.480042 9.94433C0.480042 14.8891 4.00887 18.5977 8.71392 18.5977C10.8984 18.5977 12.9148 17.7147 14.4272 16.3019L15.0993 15.7721L12.4107 12.9465L11.9066 13.4763Z" fill="white"/>
<path d="M8.54849 12.7664C10.0334 12.7664 11.2371 11.5014 11.2371 9.94082C11.2371 8.38029 10.0334 7.11523 8.54849 7.11523C7.06361 7.11523 5.85992 8.38029 5.85992 9.94082C5.85992 11.5014 7.06361 12.7664 8.54849 12.7664Z" fill="white"/>
</g>
<defs>
<clipPath id="clip0_1_550">
<rect width="15" height="18" fill="white" transform="translate(0.480042 0.669922)"/>
</clipPath>
</defs>
</svg>
