<svg width="19" height="19" viewBox="0 0 19 19" fill="none" xmlns="http://www.w3.org/2000/svg">
<g clip-path="url(#clip0_1_576)">
<g clip-path="url(#clip1_1_576)">
<g clip-path="url(#clip2_1_576)">
<path d="M16.94 1.29199C17.6041 1.29199 18.19 1.87793 18.19 2.58106V17.542C18.19 18.2451 17.6041 18.792 16.94 18.792H1.90094C1.23688 18.792 0.690002 18.2451 0.690002 17.542V2.58106C0.690002 1.87793 1.23688 1.29199 1.90094 1.29199H16.94ZM5.96344 16.292V7.97168H3.38531V16.292H5.96344ZM4.67438 6.79981C5.49469 6.79981 6.15875 6.13574 6.15875 5.31543C6.15875 4.49512 5.49469 3.79199 4.67438 3.79199C3.815 3.79199 3.15094 4.49512 3.15094 5.31543C3.15094 6.13574 3.815 6.79981 4.67438 6.79981ZM15.69 16.292V11.7217C15.69 9.49512 15.1822 7.73731 12.565 7.73731C11.315 7.73731 10.4556 8.44043 10.1041 9.10449H10.065V7.97168H7.60406V16.292H10.1822V12.1904C10.1822 11.0967 10.3775 10.042 11.7447 10.042C13.0728 10.042 13.0728 11.292 13.0728 12.2295V16.292H15.69Z" fill="white"/>
</g>
</g>
</g>
<defs>
<clipPath id="clip0_1_576">
<rect width="18" height="18" fill="white" transform="translate(0.690002 0.949219)"/>
</clipPath>
<clipPath id="clip1_1_576">
<rect width="18" height="18" fill="white" transform="translate(0.690002 0.949219)"/>
</clipPath>
<clipPath id="clip2_1_576">
<rect width="18" height="18" fill="white" transform="translate(0.690002 0.949219)"/>
</clipPath>
</defs>
</svg>
